<svg preserveAspectRatio="none" width="100%" height="100%" overflow="visible" style="display: block;" viewBox="0 0 180 216" fill="none" xmlns="http://www.w3.org/2000/svg">
<g id="Layer_1" clip-path="url(#clip0_0_4)">
<path id="Vector" d="M159.22 0H41.3757C35.7841 0 30.6998 2.214 26.9649 5.8212L26.3604 6.426L6.30405 26.4816C2.42879 30.2616 0 35.5428 0 41.3964V159.278C0 170.759 9.30495 180.068 20.7796 180.068H30.797V211.831C30.797 215.536 35.266 217.393 37.8891 214.769L72.5613 180.068H138.624C144.356 180.068 149.548 177.736 153.305 173.988L173.556 153.727L173.793 153.49C177.614 149.731 180 144.482 180 138.672V20.79C180 9.3096 170.695 0 159.22 0ZM170.296 138.672C170.296 141.664 169.119 144.482 167.003 146.567L166.96 146.599L166.798 146.761C164.758 148.662 162.135 149.731 159.361 149.753H41.3757C35.266 149.753 30.2897 144.774 30.2897 138.661V20.6496C30.322 17.874 31.3799 15.2496 33.3121 13.1976L33.7547 12.7548C35.8165 10.7892 38.5151 9.7092 41.3757 9.7092H159.22C165.33 9.7092 170.306 14.688 170.306 20.8008V138.683L170.296 138.672Z" fill="var(--fill-0, black)"/>
<path id="Vector_2" d="M170.296 20.79V138.672C170.296 141.664 169.119 144.482 167.004 146.567L166.96 146.599L166.798 146.761C164.758 148.662 162.135 149.731 159.361 149.753H41.376C35.2662 149.753 30.2899 144.774 30.2899 138.661V20.6496C30.3223 17.874 31.3802 15.2496 33.3124 13.1976L33.755 12.7548C35.8168 10.7892 38.5154 9.70919 41.376 9.70919H159.221C165.33 9.70919 170.307 14.688 170.307 20.8008L170.296 20.79Z" fill="var(--fill-0, white)"/>
<path id="Vector_3" d="M173.793 153.49L173.556 153.727" stroke="var(--stroke-0, black)" stroke-width="1.28" stroke-miterlimit="10"/>
<path id="Vector_4" d="M153.305 173.988L153.132 174.172" stroke="var(--stroke-0, black)" stroke-width="1.28" stroke-miterlimit="10"/>
<path id="Vector_5" d="M95.9964 67.1004H86.2057C84.8888 67.1004 83.7229 66.1824 83.4962 64.8864C82.4384 58.8384 77.1598 54.2268 70.8234 54.2268C64.487 54.2268 59.1868 58.8384 58.1289 64.8864C57.9022 66.1824 56.7364 67.1004 55.4195 67.1004H42.7034C42.7034 51.5916 55.3223 38.9772 70.8234 38.9772C85.299 38.9772 97.2594 49.9932 98.7706 64.0872C98.9433 65.7072 97.6264 67.1004 96.0072 67.1004H95.9964Z" fill="var(--fill-0, black)"/>
<path id="Vector_6" d="M163.031 42.66V69.282C163.031 103.237 135.267 131.749 101.329 131.339C74.7742 131.015 51.7277 113.713 43.9232 88.5924C43.3727 86.8104 44.722 85.0068 46.5787 85.0068H56.8228C57.9886 85.0068 59.0033 85.752 59.4243 86.8428C66.0522 104.155 82.6003 115.873 101.512 116.089C127.139 116.392 147.778 94.9644 147.778 69.3144V64.8756C143.914 66.8736 139.531 68.0076 134.9 68.0076C120.414 68.0076 108.464 56.9808 106.953 42.8868C106.78 41.2668 108.097 39.8736 109.716 39.8736H119.507C120.824 39.8736 121.99 40.7916 122.216 42.0876C123.274 48.1464 128.553 52.758 134.889 52.758C141.226 52.758 146.526 48.1464 147.584 42.0876C147.81 40.7916 148.976 39.8736 150.293 39.8736H160.246C161.779 39.8736 163.02 41.1156 163.02 42.6492L163.031 42.66Z" fill="var(--fill-0, black)"/>
</g>
<defs>
<clipPath id="clip0_0_4">
<rect width="180" height="216" fill="white"/>
</clipPath>
</defs>
</svg>
